<svg width="22" height="23" viewBox="0 0 22 23" fill="none" xmlns="http://www.w3.org/2000/svg">
<path d="M21.1496 1.87004L19.8396 0.870043C19.6348 0.704259 19.3729 0.625968 19.1108 0.652183C18.8486 0.678397 18.6074 0.806998 18.4396 1.01004L0.30957 21.83L0.589571 22.14L5.07957 18C4.92993 17.9398 4.80612 17.8291 4.72965 17.6871C4.65318 17.5451 4.62887 17.3807 4.66096 17.2227C4.69305 17.0646 4.77951 16.9227 4.90531 16.8218C5.03111 16.7208 5.1883 16.6671 5.34957 16.67C5.495 16.67 5.63661 16.7166 5.7536 16.803C5.87059 16.8894 5.9568 17.011 5.99957 17.15L11.9196 11.66C12.0102 11.587 12.1231 11.5472 12.2396 11.5472C12.356 11.5472 12.4689 11.587 12.5596 11.66L12.8596 11.88C12.9611 11.9528 13.0861 11.9849 13.2101 11.9701C13.3341 11.9553 13.4481 11.8946 13.5296 11.8L21.2696 3.12004C21.3518 3.03387 21.4146 2.931 21.4536 2.81842C21.4925 2.70584 21.5068 2.58619 21.4954 2.4676C21.484 2.34901 21.4473 2.23427 21.3876 2.13116C21.3279 2.02805 21.2467 1.93899 21.1496 1.87004V1.87004Z" fill="#303030"/>
</svg>
